# xmcd CD database file
#
# Track frame offsets:
#	150
#	55614
#	86397
#	121608
#	154843
#	196585
#	230307
#
# Disc length: 3718 seconds
#
# Revision: 0
# Processed by: cddbd v1.5.2PL0 Copyright (c) Steve Scherf et al.
# Submitted via: CDex 2.21
#
DISCID=410e8407
DTITLE=Ron Carter - Golden Striker
DYEAR=2017
DGENRE=Jazz
TTITLE0=Laverne Walk
TTITLE1=Candle Light
TTITLE2=Golden Striker
TTITLE3=Samba de Orfeu
TTITLE4=Eddie's Theme
TTITLE5=A Nice Song
TTITLE6=My Funny Valentine
EXTD=YEAR: 2017
EXTT0=
EXTT1=
EXTT2=
EXTT3=
EXTT4=
EXTT5=
EXTT6=
PLAYORDER=
